<?xml version="1.0" encoding="UTF-8"?> <svg xmlns="http://www.w3.org/2000/svg" xmlns:xlink="http://www.w3.org/1999/xlink" width="84.818" height="100" viewBox="0 0 84.818 100"><defs><clipPath id="clip-path"><rect id="Rectangle_825" data-name="Rectangle 825" width="84.818" height="100" transform="translate(0 0)" fill="none"></rect></clipPath></defs><g id="Big_Discounts" data-name="Big Discounts" transform="translate(0 0.003)"><g id="Group_1311" data-name="Group 1311" transform="translate(0 -0.003)" clip-path="url(#clip-path)"><path id="Path_495" data-name="Path 495" d="M84.818,55.011a1.093,1.093,0,0,0-.52-.937L81.279,52.2a4.1,4.1,0,0,0-.312-4.579L69.415,32.22l4.267-5.932a4.167,4.167,0,0,0-.937-5.828C69.936,18.483,82.841,27.745,45.479.79a4.167,4.167,0,0,0-5.828.937L3.018,52.618.52,54.179a1.093,1.093,0,0,0-.52.937c.1,0,0-.937,0,39.443a5.346,5.346,0,0,0,4.059,5.2c.1,0,.208.1.416.1.833.208-4.163.1,74.931.1a5.441,5.441,0,0,0,5.412-5.412c-.1-42.461-.208-39.443,0-39.547M57.968,71.663c11.656-6.973,16.86-10.095,24.665-14.778,0,41,.208,38.09-.416,39.131ZM2.394,96.015c-.52-1.041-.416,1.873-.416-39.131,2.185,1.353-1.249-.728,24.769,14.778ZM67.75,38.36a2.03,2.03,0,0,1,1.977,1.457c2.081,6.661,5.516,17.692,5.828,18.837L71.7,60.944,68.062,49.079a1.13,1.13,0,0,0-1.249-.728,4.178,4.178,0,0,1-5.1-2.6,1.13,1.13,0,0,0-1.249-.728L12.9,59.591a1.008,1.008,0,0,0-.728.833C6.869,57.3,8.118,58.03,6.452,56.989c5.2-1.457,60.777-18.629,61.3-18.629M33.719,46.582,52.66,32.428a6.18,6.18,0,0,0,6.973,1.041l3.122,4.163c-7.285,2.185-6.244,1.977-29.036,8.95M14.362,61.88v-.416l45.791-14.05a6.158,6.158,0,0,0,6.244,3.33l3.538,11.448L42.357,78.636ZM81.7,55.011l-4.267,2.6-.52-1.665,2.81-2.081ZM79.3,48.975a2.279,2.279,0,0,1,.208,2.29c-.312.52-.312.52-3.226,2.6C71.393,38.048,71.7,38.985,71.5,38.568ZM70.664,37.528A4.336,4.336,0,0,0,66.5,36.487a9,9,0,0,0-1.665.52l-4.163-5.516a1.119,1.119,0,0,0-1.457-.208,4.131,4.131,0,0,1-5.724-.833,1.119,1.119,0,0,0-1.457-.208c-2.394,1.769,8.846-6.661-24.457,18.212L15.09,52.306C40.9,33.157,51.307,25.351,56.2,21.709a2.023,2.023,0,0,1,2.914.416c4.371,5.62,5.516,7.077,11.552,15.4M16.235,48.871,41,14.424a6.207,6.207,0,0,0,6.973-1.145l8.43,6.036c-1.145.312,1.457-1.457-40.171,29.556M41.212,3.08a2.133,2.133,0,0,1,2.914-.52L71.5,22.125a2.023,2.023,0,0,1,.416,2.914c-.312.416,1.041-1.561-3.851,5.412L62.13,22.437a.224.224,0,0,1,.208-.208,1.119,1.119,0,0,0-.208-1.457L48.6,10.989a1.119,1.119,0,0,0-1.457.208,4.027,4.027,0,0,1-5.62.937,1.119,1.119,0,0,0-1.457.208C22.583,36.591,10.719,52.826,10.927,52.826L9.47,53.867,4.163,55.532l-.416-.208c1.457-2.185.1-.312,37.466-52.244M5.412,97.893a3.585,3.585,0,0,1-.937-.1c-.52-.208-.416-.208-.624-.208L28.62,72.812c16.339,9.783,10.095,5.932,13.321,7.909a.945.945,0,0,0,1.041,0c1.041-.624-1.249.729,13.217-7.909L80.863,97.581c-.208,0-.1,0-.624.208-.728.208,4.475.1-74.827.1" transform="translate(0 0.004)"></path><path id="Path_496" data-name="Path 496" d="M403.248,711.2a7.4,7.4,0,1,0,13.633,1.249,7.391,7.391,0,0,0-13.633-1.249m8.118,8.534a5.3,5.3,0,1,1-3.226-10.095,5.341,5.341,0,0,1,6.765,3.538,5.241,5.241,0,0,1-3.538,6.556" transform="translate(-368.904 -648.375)"></path><path id="Path_497" data-name="Path 497" d="M629.276,726.817l-3.434,1.041a1.072,1.072,0,0,0,.312,2.081c.312,0,.1.1,3.747-1.041a1.083,1.083,0,0,0,.624-1.353,1.13,1.13,0,0,0-1.249-.728" transform="translate(-573.077 -666.286)"></path></g></g></svg> 