<svg xmlns="http://www.w3.org/2000/svg" width="97.148" height="50" xmlns:v="https://vecta.io/nano"><defs><clipPath id="A"><path fill="none" d="M0 0h97.147v50H0z"/></clipPath><clipPath id="B"><path fill="none" d="M0 0h97.148v50H0z"/></clipPath></defs><g clip-path="url(#A)"><path d="M29.477 40.133c.1.198.15.417.147.639a1.39 1.39 0 0 1-.147.649c-.096.18-.241.328-.419.427-.205.109-.434.163-.666.157h-1.36v-2.466h1.36a1.32 1.32 0 0 1 .664.159 1.12 1.12 0 0 1 .421.434m-19.032-.554h-.2l-.987 2.863h2.2zm0 0h-.2l-.987 2.863h2.2zm0 0h-.2l-.987 2.863h2.2zm0 0h-.2l-.987 2.863h2.2zm0 0h-.2l-.987 2.863h2.2zm71.254 0h-.2l-.986 2.863h2.206zm0 0h-.2l-.986 2.863h2.206zm-71.254 0h-.2l-.987 2.863h2.2zM0 50h92.046V33.914H0zm12.6-4.345l-.71-2H8.836l-.687 2H6.762l2.556-7.284h2.076l2.635 7.284zm17.448 0l-1.778-2.461h-1.238v2.461H25.66v-7.332h2.576a3.85 3.85 0 0 1 1.454.254 2.11 2.11 0 0 1 .978.781 2.35 2.35 0 0 1 .348 1.329v.154c.018.468-.105.93-.352 1.328-.241.351-.582.621-.979.775h0l2.019 2.711zm17.685 0h-4.481v-7.284h4.4v1.217h-3.036v1.757h2.849v1.219h-2.849v1.873h3.121zm18.649 0H64.3l-3.245-6v6h-1.3v-7.284h2.068l3.245 6v-6h1.314zm17.473 0l-.71-2H80.09l-.687 2h-1.385l2.554-7.284h2.076l2.635 7.284zM81.5 39.578l-.986 2.863h2.206l-1.02-2.863zm-71.254 0l-.987 2.863h2.2l-1.016-2.863zm.2 0h-.2l-.987 2.863h2.2zm0 0h-.2l-.987 2.863h2.2zm0 0h-.2l-.987 2.863h2.2zm0 0h-.2l-.987 2.863h2.2zM32.493 20.92V.388h-8.582v28.2h19.578V20.92zM88.061.388l-4.989 8.453-4.8-8.455h-9.324l9.737 17.486v10.714h8.585V17.827L97.147.387z"/><path d="M9.408.153L0 .388v28.2h8.585v-8.527l1.295.048c8.348 0 11.865-4.952 11.865-10.325 0-5.633-4.035-9.63-12.336-9.63m-.095 13.18a5.17 5.17 0 0 1-.729-.046v-6.5c.312-.035.627-.051.941-.049 3.339 0 4.845 1.024 4.845 3.329 0 2.928-2.551 3.268-5.057 3.268"/><path d="M66.901 5.491C64.705 3.358 62.247 1.513 59.586 0l-4.669 5.7a18.6 18.6 0 0 1 6.14 3.823c2.034 2.034 2.386 3.151 1.4 4.127l-.39.387c-5.01-5.006-11.42-7.558-16.146-2.837-2.834 2.834-3.293 6.658.211 10.16 2.21 2.2 5.187 3.221 7.667 2.411l.035.036a17.3 17.3 0 0 0-2.34 2.07l2.692 2.7h6.234c.2-.212.41-.41.6-.611l7.739-7.726c4.267-4.28 4.621-8.279-1.858-14.758m-9.232 13.524c-.676.706-1.606 1.112-2.583 1.127s-1.919-.361-2.617-1.045a1.88 1.88 0 0 1-.2-2.811c1.259-1.246 2.834-1.21 6.092 2.036z" fill="#007bfe"/></g><g clip-path="url(#B)"><g fill="#fff"><path d="M29.478 40.132a1.37 1.37 0 0 1 .147.639 1.39 1.39 0 0 1-.147.649c-.096.18-.241.328-.419.427-.205.109-.434.163-.666.157h-1.36v-2.466h1.36a1.32 1.32 0 0 1 .664.159 1.11 1.11 0 0 1 .421.434m-19.032-.554h-.2l-.987 2.863h2.2zm0 0h-.2l-.987 2.863h2.2zm0 0h-.2l-.987 2.863h2.2zm0 0h-.2l-.987 2.863h2.2zm0 0h-.2l-.987 2.863h2.2zm71.254 0h-.2l-.986 2.863h2.204zm0 0h-.2l-.986 2.863h2.204zm-71.254 0h-.2l-.987 2.863h2.2zM-.002 49.999h92.049V33.913H-.002zm12.6-4.345l-.71-2H8.837l-.687 2H6.763l2.556-7.284h2.079l2.635 7.284zm17.448 0l-1.778-2.461h-1.235v2.461h-1.372v-7.332h2.576a3.85 3.85 0 0 1 1.454.254 2.11 2.11 0 0 1 .978.781 2.35 2.35 0 0 1 .348 1.329v.154c.018.468-.105.93-.352 1.328-.241.351-.582.621-.979.775h0l2.019 2.711zm17.685 0h-4.478V38.37h4.4v1.217h-3.036v1.757h2.849v1.219h-2.849v1.873h3.121zm18.649 0h-2.082l-3.245-6v6h-1.3V38.37h2.068l3.245 6v-6h1.314zm17.473 0l-.71-2h-3.052l-.687 2h-1.385l2.554-7.284h2.076l2.635 7.284zm-2.355-6.077l-.986 2.863h2.206l-1.02-2.863zm-71.254 0l-.987 2.863h2.2l-1.016-2.863zm.2 0h-.2l-.987 2.863h2.2zm0 0h-.2l-.987 2.863h2.2zm0 0h-.2l-.987 2.863h2.2zm0 0h-.2l-.987 2.863h2.2zm22.05-18.658V.387h-8.583v28.2H43.49v-7.668zM88.059.388l-4.987 8.453-4.8-8.455h-9.323l9.737 17.486v10.714h8.585V17.827L97.148.387z"/><path d="M9.409.152L-.002.387v28.2h8.587V20.06l1.295.048c8.348 0 11.865-4.952 11.865-10.325 0-5.633-4.034-9.63-12.336-9.63m-.094 13.18c-.244.002-.487-.014-.729-.046v-6.5a7.96 7.96 0 0 1 .941-.049c3.339 0 4.846 1.024 4.846 3.329 0 2.928-2.552 3.268-5.057 3.268"/></g><path d="M66.902 5.491C64.706 3.358 62.248 1.513 59.587 0l-4.669 5.7a18.6 18.6 0 0 1 6.14 3.823c2.034 2.034 2.386 3.151 1.4 4.127l-.39.387c-5.009-5.009-11.417-7.56-16.145-2.834-2.834 2.834-3.293 6.658.211 10.16 2.21 2.2 5.187 3.221 7.667 2.411l.035.036a17.3 17.3 0 0 0-2.34 2.07l2.692 2.7h6.234c.2-.212.41-.41.6-.611l7.739-7.726c4.267-4.28 4.621-8.279-1.858-14.758m-9.232 13.524c-.676.706-1.606 1.112-2.583 1.127s-1.919-.361-2.617-1.045a1.88 1.88 0 0 1-.2-2.811c1.259-1.246 2.834-1.21 6.092 2.036z" fill="#007bfe"/></g></svg>