<?xml version="1.0" encoding="UTF-8"?> <svg xmlns="http://www.w3.org/2000/svg" xmlns:xlink="http://www.w3.org/1999/xlink" width="107.651" height="90" viewBox="0 0 107.651 90"><defs><clipPath id="clip-path"><rect id="Rectangle_824" data-name="Rectangle 824" width="107.651" height="90" fill="none"></rect></clipPath></defs><g id="Skip_the_Queue" data-name="Skip the Queue" transform="translate(0 0.005)"><g id="Group_1308" data-name="Group 1308" transform="translate(0 -0.005)" clip-path="url(#clip-path)"><path id="Path_490" data-name="Path 490" d="M464.09,139.226a14.88,14.88,0,1,0-4.358,10.5,14.856,14.856,0,0,0,4.358-10.5m-27.473,0a12.638,12.638,0,1,1,3.7,8.914,12.615,12.615,0,0,1-3.7-8.914Z" transform="translate(-395.407 -113.211)"></path><path id="Path_491" data-name="Path 491" d="M522.226,220.508a1.861,1.861,0,0,0,2.725-1.906l-.549-3.218,2.344-2.243a1.873,1.873,0,0,0-1.043-3.185l-3.218-.471-1.446-2.916a1.862,1.862,0,0,0-3.364,0l-1.447,2.916-3.218.471a1.862,1.862,0,0,0-1.043,3.185l2.344,2.243-.572,3.218a1.862,1.862,0,0,0,2.7,1.962l2.9-1.57Zm-6.134-2.344.46-2.646a1.873,1.873,0,0,0-.572-1.648l-1.9-1.884,2.669-.381a1.862,1.862,0,0,0,1.4-1.02l1.189-2.411,1.189,2.411a1.861,1.861,0,0,0,1.4,1.02l2.669.381-1.9,1.884a1.872,1.872,0,0,0-.538,1.648l.46,2.646-2.422-1.245a1.816,1.816,0,0,0-1.727,0Z" transform="translate(-465.52 -187.069)"></path><path id="Path_492" data-name="Path 492" d="M546.359,480.61h-9.24a1.121,1.121,0,1,0,0,2.243h9.24a1.121,1.121,0,1,0,0-2.243" transform="translate(-487.914 -437.495)"></path><path id="Path_493" data-name="Path 493" d="M408.369,547.87a1.122,1.122,0,0,0-1.121,1.121v3.084a1.121,1.121,0,0,0,2.243,0v-3.084a1.121,1.121,0,0,0-1.121-1.121" transform="translate(-370.714 -498.721)"></path><path id="Path_494" data-name="Path 494" d="M106.529,87.73h-3.263s0,.09-.617-3.3a4.62,4.62,0,0,0-3.364-3.588V43.571a4.071,4.071,0,0,0-1.121-2.77,5.741,5.741,0,1,0-6.313,0c-1.278,1.368-1.121,2.736-1.121,4.609a55.237,55.237,0,0,1-8.87,8.6V1.116A1.121,1.121,0,0,0,80.738,0H26.913a1.122,1.122,0,0,0-1.121,1.121V54.011a55.236,55.236,0,0,1-8.892-8.6c0-1.9.2-3.207-1.121-4.609a5.741,5.741,0,1,0-6.313,0,4.071,4.071,0,0,0-1.121,2.77v37.3a4.575,4.575,0,0,0-3.364,3.588c-.639,3.364-.628,3.274-.628,3.3H1.121a1.121,1.121,0,0,0,0,2.243H21.306a1.121,1.121,0,0,0,0-2.243h-.46s0,.09-.617-3.3a4.6,4.6,0,0,0-3.364-3.588V55.244a61.782,61.782,0,0,0,8.926,6.975V88.852a1.121,1.121,0,0,0,1.121,1.121H80.738a1.121,1.121,0,0,0,1.121-1.121V62.219a57.943,57.943,0,0,0,8.892-6.975V80.867a4.6,4.6,0,0,0-3.364,3.588c-.628,3.364-.617,3.274-.617,3.3H84.842a1.121,1.121,0,0,0,0,2.243h21.687a1.121,1.121,0,1,0,0-2.243ZM93.622,42.315a2.03,2.03,0,0,1,3.364,1.66v3.252H92.949C92.994,43.559,92.826,43.111,93.622,42.315Zm-2.1-6.3a3.487,3.487,0,1,1,1.013,2.469A3.5,3.5,0,0,1,91.525,36.013ZM28.033,2.237H79.616V55.625c-1.334.953-2.6,1.682-3.364,2.131V6.722A1.121,1.121,0,0,0,75.131,5.6H32.519A1.122,1.122,0,0,0,31.4,6.722V57.755a38.094,38.094,0,0,1-3.364-2.131Zm16.91,60.755a45.978,45.978,0,0,1-11.3-4.026V7.844H74.009V58.967a43.879,43.879,0,0,1-29.043,4.026.016.016,0,0,0-.022,0M10.619,43.772a2.007,2.007,0,0,1,2.108-2.018A2.142,2.142,0,0,1,14.656,44v3.23H10.619Zm-1.48-7.76a3.5,3.5,0,1,1,1.017,2.466,3.5,3.5,0,0,1-1.017-2.466M18.11,84.848l.538,2.882H6.728l.538-2.882a2.321,2.321,0,0,1,2.243-1.9h6.28a2.321,2.321,0,0,1,2.265,1.9Zm-3.364-4.138H10.619V49.469h4.037ZM16.988,48.83a55.221,55.221,0,0,0,6.324,5.988A3.365,3.365,0,0,0,21.945,56.6a54.884,54.884,0,0,1-4.956-4.485ZM31.4,69.788H28.033v-6.2c.7.392,2.624,1.469,3.364,1.783ZM28.033,72.03H31.4v15.7H28.033Zm5.607-5.607a51.185,51.185,0,0,0,10.351,3.23A50.3,50.3,0,0,0,74.009,66.4V87.707H33.64Zm45.976-2.815v6.2H76.252V65.369c.841-.359,2.893-1.514,3.364-1.783Zm0,24.142H76.252v-15.7h3.364Zm0-26.756c-.28.168-3.073,1.817-3.364,1.884a48.432,48.432,0,0,1-48.477-2.052c-.628-.381-2.893-1.861-3.443-2.321a1.122,1.122,0,0,1,.2-1.85,1.043,1.043,0,0,1,1.121.09,57.99,57.99,0,0,0,7.984,4.721,45.865,45.865,0,0,0,40.369,0,55.965,55.965,0,0,0,5.237-2.916c.583-.314,2.781-1.873,2.781-1.873a1.121,1.121,0,0,1,1.233,1.873c-.123.123-3.162,2.131-3.644,2.422Zm6.19-4.362a3.363,3.363,0,0,0-1.379-1.794,54.67,54.67,0,0,0,6.324-5.988v3.274a56.761,56.761,0,0,1-4.945,4.485Zm7.188-7.166h4.037V80.709H92.994ZM89.63,84.8a2.321,2.321,0,0,1,2.243-1.9h6.28a2.321,2.321,0,0,1,2.243,1.9l.538,2.882H89.058Z" transform="translate(0 0.005)"></path></g></g></svg> 