<?xml version="1.0" encoding="UTF-8"?> <svg xmlns="http://www.w3.org/2000/svg" xmlns:xlink="http://www.w3.org/1999/xlink" id="Treats_on_us" data-name="Treats on us" width="91.201" height="99.507" viewBox="0 0 91.201 99.507"><defs><clipPath id="clip-path"><rect id="Rectangle_1175" data-name="Rectangle 1175" width="40.385" height="34.632" transform="translate(3.612 0.004)" fill="none"></rect></clipPath><clipPath id="clip-path-2"><rect id="Rectangle_1176" data-name="Rectangle 1176" width="91.201" height="99.507" transform="translate(0 0)" fill="none"></rect></clipPath></defs><g id="Group_2350" data-name="Group 2350"><g id="Group_2349" data-name="Group 2349" clip-path="url(#clip-path)"><path id="Path_1049" data-name="Path 1049" d="M23.96,34.636a1.134,1.134,0,0,1-.8-.334L6.97,18.087A10.421,10.421,0,0,1,21.088,2.755q.315.291.607.607L23.96,5.627l2.265-2.265A10.413,10.413,0,0,1,40.951,18.087L24.759,34.3a1.137,1.137,0,0,1-.487.289,1.18,1.18,0,0,1-.312.043M14.332,2.564A8.155,8.155,0,0,0,8.544,16.485L23.96,31.9,39.37,16.488A8.156,8.156,0,1,0,27.84,4.948L24.759,8.029a1.167,1.167,0,0,1-1.6,0L20.075,4.954a8.1,8.1,0,0,0-5.743-2.39"></path></g></g><g id="Group_2352" data-name="Group 2352"><g id="Group_2351" data-name="Group 2351" clip-path="url(#clip-path-2)"><path id="Path_1050" data-name="Path 1050" d="M41.281,51.627v.01a1.229,1.229,0,0,1-1.23,1.21,1.225,1.225,0,1,1,1.23-1.22"></path><path id="Path_1051" data-name="Path 1051" d="M44.231,57.257v.01a1.278,1.278,0,0,1-.37.87,1.233,1.233,0,0,1-.87.35,1.189,1.189,0,0,1-.86-.37,1.17,1.17,0,0,1-.35-.86,1.225,1.225,0,0,1,2.45,0"></path><path id="Path_1052" data-name="Path 1052" d="M47.261,52.567v.02a1.225,1.225,0,0,1-1.22,1.22h-.01a1.255,1.255,0,0,1-.86-.37,1.221,1.221,0,1,1,2.09-.87"></path><path id="Path_1053" data-name="Path 1053" d="M83.731,41.247l-.03.1-.23-.09-.27-.01Z" fill="#e8e8e8"></path><path id="Path_1054" data-name="Path 1054" d="M83.2,41.247l.27.01.23.09.03-.1Z"></path><path id="Path_1055" data-name="Path 1055" d="M91.2,42.457a1.219,1.219,0,0,0-.77-1.12l-6.38-2.35,2.88-7.89a1.194,1.194,0,0,0-.7-1.52l-6.32-2.34.87-2.28a1.171,1.171,0,0,0-.67-1.52l-7.5-2.79a1.269,1.269,0,0,0-.9.03,1.216,1.216,0,0,0-.61.67l-2.04,5.59V20.8a1.178,1.178,0,0,0-1.17-1.17H59.9a1.161,1.161,0,0,0-1.16,1.17v9.42l-.5.03-.55-3.93a1.173,1.173,0,0,0-1.16-1.01H56.5a.528.528,0,0,0-.13.01l-7.9,1.12a1.2,1.2,0,0,0-1.01,1.33l.39,2.99-6.97,1a1.156,1.156,0,0,0-1.01,1.15,1.21,1.21,0,0,0,.01.19l1.48,10.57-.34-.07a42.817,42.817,0,0,0-7.67-.69h-.04c-15.02,0-27.96,7.6-31.47,18.49a5.5,5.5,0,0,0,.78,4.86,1.536,1.536,0,0,0,.18.23l.16.17-.14.17C1,68.947,0,71.127,0,72.967a4.022,4.022,0,0,0,.34,1.71,3.768,3.768,0,0,0,2.05,1.97l.27.1-.15.25a7.125,7.125,0,0,0,.95,8.43,3.465,3.465,0,0,0,.34.32l.14.12-.08.17a1.094,1.094,0,0,0-.09.47V92.2a7.29,7.29,0,0,0,7.25,7.31h70.99a1.165,1.165,0,0,0,1.15-1.02l5.58-41.77a1.242,1.242,0,0,0-.28-.94,1.192,1.192,0,0,0-.88-.4h-1.06l4.6-12.52a1.14,1.14,0,0,0,.08-.4m-6.87-11.09L81.5,39.1l-5.57,15.21a.922.922,0,0,0-.03.09l-.35.98h-6.31l9.85-25.95ZM69.071,33.7l3.85-10.43,5.28,1.95-.74,1.91a1.126,1.126,0,0,0-.21.35l-8.19,21.73Zm-8.02,16.55a1.241,1.241,0,0,0,.03-.27V21.957h5.65v33.42h-4.97l-.72-5.09Zm-5.51-22.4,3.44,24.46-.51-.47a30.659,30.659,0,0,0-6.01-4.28l-.11-.06-.38-2.69-2.04-16.17Zm-7.59,5.3,1.84,13.1-.41-.17a37.314,37.314,0,0,0-5.43-1.84l-.16-.04-1.43-10.24ZM4.071,62.127a18.983,18.983,0,0,1,3.81-6.6,26.1,26.1,0,0,1,6.54-5.38,37.689,37.689,0,0,1,18.55-4.88h.35l.25.01h.13a37.716,37.716,0,0,1,16.77,3.95l.06.05a.884.884,0,0,0,.38.18l.1.05c.41.21.81.42,1.21.65a24.8,24.8,0,0,1,7.74,6.89l.01.01c.01.01.01.02.02.02l.05.05v.02a1.278,1.278,0,0,1,.14.21,17.869,17.869,0,0,1,2.4,4.78,3.078,3.078,0,0,1-.44,2.74,2.45,2.45,0,0,1-1.97,1.06H6.471a2.428,2.428,0,0,1-1.98-1.09,2.958,2.958,0,0,1-.56-1.77,2.808,2.808,0,0,1,.14-.95m-1.59,11.61c-.42-.97.07-2.99,2.09-5.35l.07-.09h57.34l.08.09c2.02,2.36,2.51,4.39,2.1,5.35-.29.65-1.09,1-2.32,1.02H61.7a12.929,12.929,0,0,1-6.42-2.28,1.4,1.4,0,0,0-.46-.16l-.14.01a1.19,1.19,0,0,0-1.08.69,3.3,3.3,0,0,1-2.92,1.77c-.11,0-.23-.01-.35-.02a9.323,9.323,0,0,1-5.47-2.1,1.182,1.182,0,0,0-1.62.23,4.668,4.668,0,0,1-2.43,1.65,3.175,3.175,0,0,1-.61.14l-.59.06h-.05a2.348,2.348,0,0,1-.27.01,2.528,2.528,0,0,1-.27-.01q-.33-.015-.66-.06h-.02c-.01,0-.03-.01-.04-.01-.19-.04-.37-.07-.56-.12h-.01a6.905,6.905,0,0,1-3.32-1.92,1.147,1.147,0,0,0-1.61-.02l-.05.05a6.9,6.9,0,0,1-4.83,2.09,4.82,4.82,0,0,1-4.14-2.07l-.05-.06a1.159,1.159,0,0,0-1.61-.22,9.842,9.842,0,0,1-5.83,2.35,3.3,3.3,0,0,1-3.25-1.73,1.22,1.22,0,0,0-.09-.17,1.161,1.161,0,0,0-.99-.55,1.147,1.147,0,0,0-.62.18,12.89,12.89,0,0,1-6.43,2.27c-1.32,0-2.15-.36-2.43-1.02m59.2,3.82.16.22a4.784,4.784,0,0,1-.38,6.03,4.716,4.716,0,0,1-3.43,1.49h-5.32Zm-12.05,7.31-7.91-8.13.35-.13a7.127,7.127,0,0,0,2.14-1.31l.14-.13.16.11a11.313,11.313,0,0,0,5.85,1.84,5.788,5.788,0,0,0,4.57-1.87l.14-.15.17.1a14.12,14.12,0,0,0,3.35,1.42l.45.12Zm-44.44-1.06c-.06-.05-.1-.11-.15-.16l-.05-.07a4.794,4.794,0,0,1,.37-6.44l.07-.06.08-.01a14.07,14.07,0,0,0,5.88-1.88l.17-.1.14.15a5.828,5.828,0,0,0,4.56,1.87,11.323,11.323,0,0,0,6.19-2.04l.17-.11.15.14a7.3,7.3,0,0,0,5.05,2.01h.1a9.083,9.083,0,0,0,5.53-1.93l.16-.12.15.12a8.974,8.974,0,0,0,4.93,1.9l.1.01,7.96,8.21H8.611a4.677,4.677,0,0,1-3.42-1.49m55.38,8.39a4.964,4.964,0,0,1-4.92,4.96H11.021A4.951,4.951,0,0,1,6.1,92.2v-4.51h54.47ZM86.2,58.017l-5.21,39.14H61l.32-.41a7.334,7.334,0,0,0,1.59-4.54v-5.69a1.45,1.45,0,0,0-.11-.5l-.08-.17.14-.12a2.2,2.2,0,0,0,.31-.3,4.284,4.284,0,0,0,.29-.33,7.2,7.2,0,0,0,.68-8.09l-.14-.25.26-.1a3.684,3.684,0,0,0,2.03-1.98c.88-2.07-.05-5-2.48-7.84l-.15-.17.15-.16c.07-.08.13-.16.19-.24a5.459,5.459,0,0,0,.78-4.87,20.709,20.709,0,0,0-1.4-3.29l-.2-.37h23.06Zm-2.14-2.64h-6.02l.12-.34,5.04-13.79h.53l-.03.1,4.83,1.8Z"></path></g></g></svg> 